<?xml version="1.0" encoding="UTF-8" standalone="no"?>
<svg
   xmlns:dc="http://purl.org/dc/elements/1.1/"
   xmlns:cc="http://creativecommons.org/ns#"
   xmlns:rdf="http://www.w3.org/1999/02/22-rdf-syntax-ns#"
   xmlns:svg="http://www.w3.org/2000/svg"
   xmlns="http://www.w3.org/2000/svg"
   viewBox="0 0 256 256"
   version="1.1"
   id="svg138"
   width="256"
   height="256">
  <metadata
     id="metadata144">
    <rdf:RDF>
      <cc:Work
         rdf:about="">
        <dc:format>image/svg+xml</dc:format>
        <dc:type
           rdf:resource="http://purl.org/dc/dcmitype/StillImage" />
        <dc:title></dc:title>
      </cc:Work>
    </rdf:RDF>
  </metadata>
  <defs
     id="defs142" />
  <g
     id="layer1"
     style="display:inline">
    <rect
       style="fill:#000000;fill-rule:evenodd;stroke-width:14.6908"
       id="rect163"
       width="150"
       height="150"
       x="53"
       y="53" />
  </g>
  <g
     id="layer2">
    <path
       id="circle120"
       style="fill:#9cc8f8;fill-opacity:1;stroke:none;stroke-width:0.655291"
       d="M 20.252216,255.99975 A 20.095554,20.095543 0 0 0 40.190768,235.90443 20.095554,20.095543 0 0 0 38.36026,227.5252 l 7.578389,-7.57838 a 20.095607,20.095543 0 0 0 8.379234,1.8305 20.095607,20.095543 0 0 0 18.841093,-13.10591 H 217.06358 A 20.095607,20.095543 0 0 0 235.90467,221.77732 20.095607,20.095543 0 0 0 256,201.682 a 20.095607,20.095543 0 0 0 -20.09533,-20.09531 20.095607,20.095543 0 0 0 -0.1589,0 20.095607,20.095543 0 0 0 -0.39194,0.006 20.095607,20.095543 0 0 0 -18.29025,13.09957 H 73.158976 a 20.095607,20.095543 0 0 0 -0.319913,-0.80932 20.095554,20.095596 0 0 1 0,-0.002 20.095607,20.095543 0 0 0 -0.849583,-1.76694 20.095554,20.095596 0 0 1 0,-0.002 20.095607,20.095543 0 0 0 -5.593218,-6.49153 20.095554,20.095596 0 0 1 -0.0022,0 20.095607,20.095543 0 0 0 -5.086858,-2.77965 V 38.936402 A 20.095554,20.095596 0 0 0 74.413213,20.09532 20.095554,20.095596 0 0 0 54.317883,0 20.095554,20.095596 0 0 0 34.222554,20.09532 20.095554,20.095596 0 0 0 47.328479,38.936402 V 182.84092 a 20.095607,20.095543 0 0 0 -4.58051,2.40889 20.095554,20.095596 0 0 0 -0.631355,0.46611 20.095607,20.095543 0 0 0 -3.860164,3.88771 20.095554,20.095596 0 0 1 0,0.002 20.095607,20.095543 0 0 0 -4.029666,11.68219 20.095554,20.095596 0 0 1 0,0.002 20.095607,20.095543 0 0 0 -0.0043,0.39195 20.095554,20.095596 0 0 0 0,0.15678 20.095607,20.095543 0 0 0 1.830508,8.22245 l -7.578389,7.57839 A 20.095554,20.095543 0 0 0 20.09533,215.80922 20.095554,20.095543 0 0 0 5.4237265e-7,235.90454 20.095554,20.095543 0 0 0 20.09533,255.99986 a 20.095554,20.095543 0 0 0 0.156779,0 z" />
    <path
       id="path1468"
       style="color:#000000;font-style:normal;font-variant:normal;font-weight:normal;font-stretch:normal;font-size:64px;line-height:1.25;font-family:Monaco;-inkscape-font-specification:'Monaco, Normal';font-variant-ligatures:normal;font-variant-position:normal;font-variant-caps:normal;font-variant-numeric:normal;font-variant-alternates:normal;font-variant-east-asian:normal;font-feature-settings:normal;font-variation-settings:normal;text-indent:0;text-align:start;text-decoration:none;text-decoration-line:none;text-decoration-style:solid;text-decoration-color:#000000;letter-spacing:normal;word-spacing:normal;text-transform:none;writing-mode:lr-tb;direction:ltr;text-orientation:mixed;dominant-baseline:auto;baseline-shift:baseline;text-anchor:start;white-space:normal;shape-padding:0;shape-margin:0;inline-size:0;clip-rule:nonzero;display:inline;overflow:visible;visibility:visible;isolation:auto;mix-blend-mode:normal;color-interpolation:sRGB;color-interpolation-filters:linearRGB;solid-color:#000000;solid-opacity:1;vector-effect:none;fill:#ffffff;fill-opacity:1;fill-rule:nonzero;stroke:none;stroke-width:2.00001;stroke-linecap:round;stroke-linejoin:round;stroke-miterlimit:4;stroke-dasharray:none;stroke-dashoffset:0;stroke-opacity:1;color-rendering:auto;image-rendering:auto;shape-rendering:auto;text-rendering:auto;enable-background:accumulate;stop-color:#000000"
       d="m 124.79313,70.200843 a 2.4689621,2.4689607 0 0 0 -2.4687,2.468696 v 7.941369 c -7.5306,1.05402 -13.75144,3.612089 -17.82583,8.327096 -4.28707,4.921772 -6.610588,10.275589 -6.610588,15.824816 0,10.23559 6.901118,18.90142 19.378448,25.58881 l 5.05797,2.74355 v 28.82898 c -2.195,-0.22665 -4.42844,-0.43505 -6.33088,-0.81006 -2.64296,-0.52893 -5.16398,-1.24132 -7.56528,-2.14083 l -0.0108,-0.003 c -2.39968,-0.91423 -4.86758,-2.02456 -7.40614,-3.33179 a 2.4689621,2.4689607 0 0 0 -3.601837,2.19388 v 11.41299 a 2.4689621,2.4689607 0 0 0 1.456174,2.25171 c 3.352183,1.51198 6.357623,2.59592 9.064803,3.24021 a 2.4689621,2.4689607 0 0 0 0.0336,0.0109 c 2.60638,0.57895 5.38459,1.00624 8.3271,1.29221 2.07706,0.20194 4.0484,0.24489 6.03195,0.30379 v 6.98664 a 2.4689621,2.4689607 0 0 0 2.46872,2.46872 h 8.32227 a 2.4689621,2.4689607 0 0 0 2.46871,-2.46872 v -8.22155 c 4.55721,-1.01608 8.58271,-2.51607 11.76018,-4.81209 3.55683,-2.57022 6.3542,-5.70028 8.28366,-9.33484 l 0.003,-0.003 c 1.95313,-3.64636 2.96056,-7.50155 2.96056,-11.4419 0,-4.40729 -1.34465,-8.63549 -3.91525,-12.47376 l -0.003,-0.003 c -2.65122,-4.01813 -7.21997,-7.70268 -13.66471,-11.41299 a 2.4689621,2.4689607 0 0 0 -0.0108,-0.003 l -5.41478,-3.09072 V 94.657727 c 3.18074,0.469905 6.61017,1.060827 11.37925,2.386764 l 2.06369,0.588239 a 2.4689621,2.4689607 0 0 0 3.14374,-2.372278 V 84.975742 A 2.4689621,2.4689607 0 0 0 150.312,82.584176 c -5.58511,-1.421694 -10.29453,-1.941571 -14.73039,-2.150465 v -7.758139 a 2.4689621,2.4689607 0 0 0 -2.46872,-2.468716 z m -2.4687,24.740182 v 18.896235 c -1.91848,-1.47338 -4.39773,-3.09117 -5.30389,-4.26237 -1.56184,-2.10923 -2.24207,-4.09693 -2.24207,-6.18143 0,-2.17875 0.72139,-3.880878 2.45425,-5.588386 1.20779,-1.163384 3.0031,-2.080381 5.09171,-2.864049 z m 13.25971,46.804285 c 1.52235,1.23524 3.76274,2.77351 4.38291,3.5729 a 2.4689621,2.4689607 0 0 0 0.0141,0.0195 c 1.1539,1.45696 1.72618,3.12761 1.72618,5.36172 0,2.31471 -0.61037,4.28286 -1.8901,6.1525 a 2.4689621,2.4689607 0 0 0 -0.003,0.0108 c -0.68939,1.0155 -2.24705,2.09429 -4.22862,3.14377 z" />
    <path
       id="path1120"
       style="fill:#1685fc;fill-opacity:1;stroke:none;stroke-width:0.655291"
       d="M 235.74778,1.52949e-4 A 20.095554,20.095543 0 0 0 215.80923,20.095472 a 20.095554,20.095543 0 0 0 1.83051,8.379229 l -7.57839,7.578385 a 20.095607,20.095543 0 0 0 -8.37923,-1.830507 20.095607,20.095543 0 0 0 -18.8411,13.105918 H 38.936424 A 20.095607,20.095543 0 0 0 20.09533,34.222579 20.095607,20.095543 0 0 0 0,54.317898 a 20.095607,20.095543 0 0 0 20.09533,20.095318 20.095607,20.095543 0 0 0 0.158904,0 20.095607,20.095543 0 0 0 0.39194,-0.0065 20.095607,20.095543 0 0 0 18.29025,-13.099562 H 182.84102 a 20.095607,20.095543 0 0 0 0.31992,0.809318 20.095554,20.095596 0 0 1 0,0.0022 20.095607,20.095543 0 0 0 0.84958,1.766941 20.095554,20.095596 0 0 1 0,0.0022 20.095607,20.095543 0 0 0 5.59322,6.491525 20.095554,20.095596 0 0 1 0.002,0 20.095607,20.095543 0 0 0 5.08686,2.779658 V 217.0635 a 20.095554,20.095596 0 0 0 -13.10598,18.84108 20.095554,20.095596 0 0 0 20.09533,20.09532 20.095554,20.095596 0 0 0 20.09533,-20.09532 20.095554,20.095596 0 0 0 -13.10593,-18.84108 V 73.15898 a 20.095607,20.095543 0 0 0 4.58051,-2.408892 20.095554,20.095596 0 0 0 0.63136,-0.466104 20.095607,20.095543 0 0 0 3.86016,-3.887714 20.095554,20.095596 0 0 1 0,-0.0022 20.095607,20.095543 0 0 0 4.02967,-11.68219 20.095554,20.095596 0 0 1 0,-0.0022 20.095607,20.095543 0 0 0 0.004,-0.391951 20.095554,20.095596 0 0 0 0,-0.156778 20.095607,20.095543 0 0 0 -1.8305,-8.222452 l 7.57828,-7.578275 a 20.095554,20.095543 0 0 0 8.37923,1.830506 20.095554,20.095543 0 0 0 20.09533,-20.095318 20.095554,20.095543 0 0 0 -20.09533,-20.095319051 20.095554,20.095543 0 0 0 -0.15678,0 z" />
  </g>
</svg>
